<svg width="26" height="26" viewBox="0 0 26 26" fill="none" xmlns="http://www.w3.org/2000/svg">
<g clip-path="url(#clip0)">
<path d="M25.2524 6.1588L24.4942 5.40048L24.79 5.10463C24.9388 4.95589 24.9388 4.71473 24.79 4.56605C24.6413 4.41726 24.4001 4.41731 24.2514 4.56605L23.9556 4.8619L23.1973 4.10363C22.2682 3.17449 20.7853 3.1298 19.802 3.9682L18.9553 3.74319C18.2207 3.54798 17.6893 2.93394 17.6016 2.17892C17.4571 0.936711 16.4053 0 15.1548 0H10.8177C9.56724 0 8.51536 0.936711 8.37093 2.17887C8.28319 2.93389 7.75181 3.54793 7.01716 3.74314L6.17063 3.9681C5.71782 3.5813 5.14871 3.36979 4.5467 3.36979C3.8775 3.36979 3.24838 3.63035 2.77515 4.10358L2.01688 4.8619L1.72098 4.56605C1.57229 4.41726 1.33113 4.41731 1.18239 4.56605C1.03365 4.71479 1.03365 4.95595 1.18244 5.10463L1.47829 5.40048L0.720079 6.1587C0.597595 6.28113 0.48745 6.41677 0.392743 6.56185C0.277724 6.73796 0.327286 6.97399 0.503395 7.08896C0.679556 7.20393 0.915485 7.15437 1.0305 6.97831C1.09657 6.8772 1.1733 6.7827 1.25866 6.69739L3.31383 4.64217C3.6431 4.31285 4.08099 4.13151 4.5467 4.13151C5.01241 4.13151 5.45025 4.31285 5.77952 4.64217L6.3538 5.21645C1.79954 9.77067 7.23435 4.33586 1.8329 9.73741L1.25861 9.16312C0.997954 8.90251 0.829259 8.57253 0.770809 8.20889C0.737395 8.00119 0.541989 7.85987 0.334243 7.89334C0.126599 7.92675 -0.0146749 8.12216 0.0186884 8.32985C0.102782 8.8527 0.345364 9.32714 0.720028 9.70176L1.31727 10.299C1.45945 10.4411 1.64618 10.5122 1.83285 10.5122C2.01962 10.5122 2.20634 10.4411 2.34853 10.2989L3.47598 9.1715L4.37455 10.0701C3.53986 11.523 3.06211 13.2059 3.06211 14.9983C3.06211 17.5243 4.01126 19.8325 5.57101 21.5861V24.7847C5.57101 25.4548 6.1162 26 6.78641 26H8.84569C9.51585 26 10.0611 25.4549 10.0611 24.7847V24.4823C10.9862 24.7681 11.9685 24.9224 12.9862 24.9224C14.004 24.9224 14.9863 24.7681 15.9114 24.4823V24.7846C15.9114 25.4548 16.4566 26 17.1268 26H19.1861C19.8187 26 20.3508 25.5057 20.3974 24.8748C20.4129 24.665 20.2554 24.4824 20.0456 24.4669C19.8359 24.452 19.6532 24.6089 19.6377 24.8187C19.6203 25.054 19.422 25.2383 19.1861 25.2383H17.1268C16.8766 25.2383 16.6731 25.0348 16.6731 24.7847V24.2118C17.7724 23.7703 18.7752 23.1379 19.6398 22.3552V23.3224C19.6398 23.5327 19.8102 23.7032 20.0206 23.7032C20.231 23.7032 20.4015 23.5327 20.4015 23.3224V21.5861C21.9612 19.8325 22.9104 17.5243 22.9104 14.9983C22.9104 13.2059 22.4326 11.523 21.5979 10.0701L22.4965 9.1715L23.6239 10.299C23.9084 10.5834 24.371 10.5832 24.6553 10.299L25.2525 9.70176C25.7257 9.22858 25.9862 8.59945 25.9862 7.93025C25.9862 7.26106 25.7257 6.63198 25.2524 6.1588ZM6.91544 4.70082L6.80286 4.58824L7.21272 4.47931C8.2518 4.20316 9.00347 3.3347 9.12757 2.26677C9.22731 1.40877 9.95394 0.761719 10.8177 0.761719H15.1547C16.0185 0.761719 16.7451 1.40877 16.8449 2.26682C16.969 3.33475 17.7206 4.20321 18.7597 4.47936L19.1696 4.58829L19.057 4.70082C18.9193 4.83854 18.8434 5.02171 18.8434 5.2165C18.8434 5.41125 18.9193 5.59437 19.057 5.73214L20.1845 6.85963L19.5141 7.53C17.8572 6.07989 15.7153 5.17136 13.367 5.08229V4.21017H14.2839C14.4942 4.21017 14.6647 4.03965 14.6647 3.82931C14.6647 3.61898 14.4942 3.44845 14.2839 3.44845H11.6886C11.4782 3.44845 11.3078 3.61898 11.3078 3.82931C11.3078 4.03965 11.4782 4.21017 11.6886 4.21017H12.6054V5.08224C10.2571 5.17131 8.11525 6.07984 6.45831 7.52995L5.78795 6.85958L6.91544 5.73209C7.19972 5.44771 7.19967 4.98509 6.91544 4.70082ZM4.01461 8.63291L4.63196 8.01557L5.24931 7.39822L5.90454 8.05345C5.49494 8.47107 5.12175 8.92445 4.79045 9.4087L4.01461 8.63291ZM9.29937 24.7847C9.29937 25.0348 9.09584 25.2383 8.84569 25.2383H6.78641C6.53626 25.2383 6.33273 25.0348 6.33273 24.7847V22.3553C7.19728 23.1379 8.20001 23.7704 9.29932 24.2118V24.7847H9.29937ZM12.9862 24.1607C7.93406 24.1607 3.82383 20.0505 3.82383 14.9983C3.82383 9.94612 7.93401 5.83593 12.9862 5.83593C18.0384 5.83593 22.1486 9.94617 22.1486 14.9983C22.1486 20.0504 18.0384 24.1607 12.9862 24.1607ZM21.182 9.4087C20.8507 8.92445 20.4775 8.47102 20.0679 8.05345L20.7232 7.39822L21.9579 8.63291L21.182 9.4087ZM24.7138 9.16317L24.1396 9.73746C23.5734 9.1712 20.1865 5.78434 19.6187 5.21645L20.1929 4.64222C20.8727 3.96241 21.9789 3.96236 22.6587 4.64222L24.7139 6.69739C25.0432 7.0267 25.2246 7.46454 25.2246 7.93025C25.2246 8.39597 25.0431 8.83386 24.7138 9.16317Z" fill="#535353"/>
<path d="M12.9862 10.1719C13.1966 10.1719 13.3671 10.0014 13.3671 9.79106V9.30127C13.3671 9.09093 13.1966 8.92041 12.9862 8.92041C12.7758 8.92041 12.6053 9.09093 12.6053 9.30127V9.79106C12.6053 10.0014 12.7759 10.1719 12.9862 10.1719Z" fill="#535353"/>
<path d="M16.6683 11.697C16.7658 11.697 16.8633 11.6599 16.9377 11.5855L17.284 11.2391C17.4327 11.0904 17.4327 10.8492 17.284 10.7005C17.1352 10.5518 16.8941 10.5518 16.7454 10.7005L16.399 11.0469C16.2503 11.1956 16.2503 11.4368 16.399 11.5855C16.4734 11.6599 16.5709 11.697 16.6683 11.697Z" fill="#535353"/>
<path d="M18.1935 15.3792H18.6833C18.8937 15.3792 19.0641 15.2087 19.0641 14.9983C19.0641 14.7879 18.8937 14.6174 18.6833 14.6174H18.1935C17.9831 14.6174 17.8126 14.7879 17.8126 14.9983C17.8126 15.2087 17.9832 15.3792 18.1935 15.3792Z" fill="#535353"/>
<path d="M16.7454 19.296C16.8198 19.3704 16.9173 19.4076 17.0147 19.4076C17.1122 19.4076 17.2097 19.3704 17.2841 19.296C17.4328 19.1473 17.4328 18.9061 17.2841 18.7574L16.9377 18.4111C16.7889 18.2624 16.5478 18.2624 16.3991 18.4111C16.2504 18.5599 16.2504 18.801 16.3991 18.9497L16.7454 19.296Z" fill="#535353"/>
<path d="M12.6053 20.2056V20.6953C12.6053 20.9057 12.7758 21.0762 12.9862 21.0762C13.1966 21.0762 13.3671 20.9057 13.3671 20.6953V20.2056C13.3671 19.9952 13.1966 19.8247 12.9862 19.8247C12.7758 19.8247 12.6053 19.9952 12.6053 20.2056Z" fill="#535353"/>
<path d="M9.0348 18.4111L8.68847 18.7574C8.53973 18.9062 8.53973 19.1473 8.68847 19.296C8.76287 19.3704 8.86037 19.4076 8.95782 19.4076C9.05527 19.4076 9.15277 19.3704 9.22716 19.296L9.57349 18.9497C9.72223 18.8009 9.72223 18.5598 9.57349 18.4111C9.4247 18.2624 9.18359 18.2624 9.0348 18.4111Z" fill="#535353"/>
<path d="M7.77898 14.6174H7.28915C7.07876 14.6174 6.90829 14.7879 6.90829 14.9983C6.90829 15.2087 7.07876 15.3792 7.28915 15.3792H7.77898C7.98937 15.3792 8.15984 15.2087 8.15984 14.9983C8.15984 14.7879 7.98932 14.6174 7.77898 14.6174Z" fill="#535353"/>
<path d="M9.57344 11.0469L9.22711 10.7005C9.07832 10.5518 8.83721 10.5518 8.68847 10.7005C8.53974 10.8493 8.53974 11.0904 8.68847 11.2391L9.0348 11.5855C9.1092 11.6598 9.2067 11.697 9.30414 11.697C9.40159 11.697 9.49909 11.6599 9.57349 11.5855C9.72218 11.4368 9.72218 11.1956 9.57344 11.0469Z" fill="#535353"/>
<path d="M15.5083 14.9983C15.5083 14.788 15.3378 14.6175 15.1274 14.6175H13.3671V11.7831C13.3671 11.5727 13.1966 11.4022 12.9862 11.4022C12.7758 11.4022 12.6054 11.5727 12.6054 11.7831V14.9983C12.6054 15.2087 12.7758 15.3792 12.9862 15.3792H15.1274C15.3378 15.3792 15.5083 15.2087 15.5083 14.9983Z" fill="#535353"/>
<path d="M17.2733 8.59906C17.0988 8.48185 16.8621 8.52837 16.7449 8.70301C16.6276 8.87764 16.6742 9.11428 16.8489 9.23149C18.776 10.525 19.9265 12.6809 19.9265 14.9983C19.9265 18.8251 16.8131 21.9386 12.9862 21.9386C9.15931 21.9386 6.04591 18.8251 6.04591 14.9983C6.04591 11.1714 9.15931 8.05798 12.9862 8.05798C13.8795 8.05798 14.7496 8.22556 15.5722 8.5561C15.7673 8.6344 15.9891 8.5399 16.0676 8.34464C16.146 8.14949 16.0514 7.92768 15.8562 7.84927C14.9429 7.48233 13.9772 7.29626 12.9862 7.29626C8.7393 7.29626 5.28419 10.7514 5.28419 14.9983C5.28419 19.2452 8.7393 22.7003 12.9862 22.7003C17.2331 22.7003 20.6882 19.2452 20.6882 14.9983C20.6882 12.4265 19.4117 10.0343 17.2733 8.59906Z" fill="#535353"/>
</g>
<defs>
<clipPath id="clip0">
<rect width="26" height="26" fill="white"/>
</clipPath>
</defs>
</svg>
