<svg width="18" height="18" viewBox="0 0 18 18" fill="none" xmlns="http://www.w3.org/2000/svg">
<g clip-path="url(#clip0)">
<path d="M17.2969 8.29687H2.40616L4.87286 5.84212C5.1481 5.56818 5.14916 5.123 4.87522 4.84776C4.60128 4.57249 4.15606 4.57147 3.88083 4.84537L0.206857 8.50162C0.206611 8.50183 0.206436 8.50208 0.206225 8.50229C-0.0683105 8.77623 -0.0691894 9.22285 0.206154 9.4977C0.2064 9.49792 0.206576 9.49816 0.206787 9.49837L3.88076 13.1546C4.15596 13.4285 4.60118 13.4275 4.87515 13.1522C5.14909 12.877 5.14803 12.4318 4.87279 12.1579L2.40616 9.70312H17.2969C17.6852 9.70312 18 9.38833 18 9C18 8.61166 17.6852 8.29687 17.2969 8.29687Z" fill="#134B66"/>
</g>
<defs>
<clipPath id="clip0">
<rect width="18" height="18" fill="white"/>
</clipPath>
</defs>
</svg>
