<svg width="26" height="26" viewBox="0 0 26 26" fill="none" xmlns="http://www.w3.org/2000/svg">
<g clip-path="url(#clip0)">
<path d="M24.5651 14.3224C25.5053 12.8325 26.0008 11.1173 26.0008 9.3437C26.0008 4.19159 21.8092 0 16.6571 0C14.9313 0 13.2452 0.474348 11.7811 1.37175C11.542 1.51831 11.4669 1.83092 11.6135 2.07005C11.76 2.30912 12.0726 2.38423 12.3118 2.23762C13.6162 1.43818 15.1188 1.01562 16.6571 1.01562C21.2492 1.01562 24.9852 4.75155 24.9852 9.3437C24.9852 11.0092 24.4953 12.6164 23.5684 13.9918C23.4455 14.1742 23.456 14.41 23.5825 14.5793L24.139 16.6561L21.9054 16.0576C21.7591 16.0184 21.6029 16.0465 21.4795 16.1343C20.0659 17.1402 18.3983 17.6718 16.6571 17.6718C15.6652 17.6718 14.6951 17.4986 13.7724 17.1577C13.1228 14.7656 11.2354 12.8782 8.84338 12.2287C8.50244 11.306 8.32907 10.336 8.32907 9.34375C8.32907 7.78832 8.76046 6.27143 9.57662 4.95706C9.72454 4.7188 9.65131 4.40573 9.41305 4.25775C9.17489 4.10983 8.86172 4.183 8.71374 4.42132C7.7976 5.89672 7.3134 7.59886 7.3134 9.34375C7.3134 10.2572 7.44451 11.1541 7.70299 12.0189C7.47453 11.9964 7.24296 11.9845 7.00871 11.9845C3.14461 11.9845 0.000946045 15.1282 0.000946045 18.9923C0.000946045 20.3791 0.401915 21.7103 1.16272 22.8579L0.619259 24.8863C0.572286 25.0616 0.622407 25.2485 0.750681 25.3769C0.878954 25.5051 1.06588 25.5552 1.24118 25.5083L3.31991 24.9513C4.42694 25.638 5.69728 26 7.00871 26C8.34349 26 9.64182 25.6232 10.7633 24.9103C11 24.7599 11.0699 24.446 10.9195 24.2094C10.769 23.9727 10.4551 23.9028 10.2185 24.0532C9.26005 24.6624 8.15022 24.9844 7.00871 24.9844C5.82043 24.9844 4.67191 24.6371 3.68741 23.9801C3.56589 23.899 3.41533 23.8741 3.2741 23.912L1.82785 24.2995L2.20434 22.8945C2.2436 22.748 2.21531 22.5916 2.12721 22.4681C1.40058 21.4496 1.01652 20.2477 1.01652 18.9922C1.01652 15.6881 3.70463 13.0001 7.00866 13.0001C10.3127 13.0001 13.0008 15.6882 13.0008 18.9922C13.0008 19.6978 12.8795 20.3884 12.6402 21.0448C12.5442 21.3083 12.6799 21.5998 12.9434 21.6958C13.2069 21.7919 13.4984 21.6562 13.5944 21.3927C13.8745 20.6245 14.0165 19.8169 14.0165 18.9922C14.0165 18.758 14.0047 18.5265 13.9821 18.2981C14.847 18.5565 15.744 18.6874 16.6571 18.6874C18.5297 18.6874 20.3266 18.1392 21.8696 17.0994L24.7257 17.8647C24.901 17.9117 25.0879 17.8615 25.2162 17.7333C25.3445 17.605 25.3946 17.418 25.3476 17.2427L24.5651 14.3224Z" fill="#535353"/>
<path d="M19.274 10.4252H14.1018C13.8213 10.4252 13.594 10.6525 13.594 10.933C13.594 12.639 14.9819 14.0269 16.6879 14.0269C18.3939 14.0269 19.7819 12.639 19.7819 10.933C19.7818 10.6525 19.5544 10.4252 19.274 10.4252ZM16.6879 13.0113C15.7171 13.0113 14.8996 12.3421 14.6724 11.4407H18.7036C18.4763 12.3421 17.6587 13.0113 16.6879 13.0113Z" fill="#535353"/>
<path d="M20.6419 7.60798C20.4948 7.36916 20.1819 7.29491 19.9432 7.44198L19.877 7.48285C19.6384 7.63027 19.5645 7.94319 19.712 8.18176C19.808 8.33725 19.9743 8.42277 20.1444 8.42277C20.2355 8.42277 20.3277 8.39829 20.4109 8.34685L20.4759 8.30668C20.7147 8.15957 20.789 7.84675 20.6419 7.60798Z" fill="#535353"/>
<path d="M13.6642 7.60793C13.5171 7.36916 13.2041 7.29492 12.9655 7.44198L12.8993 7.48286C12.6607 7.63028 12.5868 7.94319 12.7343 8.18176C12.8303 8.3372 12.9966 8.42272 13.1667 8.42272C13.2578 8.42272 13.35 8.39824 13.4332 8.3468L13.4982 8.30663C13.737 8.15952 13.8113 7.84671 13.6642 7.60793Z" fill="#535353"/>
<path d="M4.57392 18.6332C4.47947 18.5387 4.34845 18.4844 4.2149 18.4844C4.08134 18.4844 3.95038 18.5387 3.85587 18.6332C3.76142 18.7276 3.70708 18.8586 3.70708 18.9922C3.70708 19.1257 3.76142 19.2568 3.85587 19.3512C3.95033 19.4457 4.08134 19.5 4.2149 19.5C4.34845 19.5 4.47947 19.4457 4.57392 19.3512C4.66837 19.2568 4.72271 19.1257 4.72271 18.9922C4.72271 18.8586 4.66837 18.7276 4.57392 18.6332Z" fill="#535353"/>
<path d="M7.3669 18.6332C7.27244 18.5387 7.14143 18.4844 7.00787 18.4844C6.87432 18.4844 6.74335 18.5387 6.64885 18.6332C6.5544 18.7276 6.50006 18.8586 6.50006 18.9922C6.50006 19.1257 6.5544 19.2568 6.64885 19.3512C6.7433 19.4457 6.87432 19.5 7.00787 19.5C7.14143 19.5 7.27244 19.4457 7.3669 19.3512C7.46135 19.2568 7.51569 19.1257 7.51569 18.9922C7.51569 18.8586 7.46135 18.7276 7.3669 18.6332Z" fill="#535353"/>
<path d="M10.1598 18.6332C10.0654 18.5387 9.93434 18.4844 9.80079 18.4844C9.66723 18.4844 9.53627 18.5387 9.44177 18.6332C9.34731 18.7276 9.29298 18.8586 9.29298 18.9922C9.29298 19.1257 9.34731 19.2568 9.44177 19.3512C9.53622 19.4457 9.66723 19.5 9.80079 19.5C9.93434 19.5 10.0654 19.4457 10.1598 19.3512C10.2543 19.2568 10.3086 19.1257 10.3086 18.9922C10.3086 18.8586 10.2543 18.7276 10.1598 18.6332Z" fill="#535353"/>
<path d="M12.4328 22.7057C12.3383 22.6112 12.2073 22.5569 12.0738 22.5569C11.9397 22.5569 11.8092 22.6112 11.7147 22.7057C11.6203 22.8001 11.5659 22.9311 11.5659 23.0647C11.5659 23.1983 11.6203 23.3293 11.7147 23.4237C11.8092 23.5182 11.9397 23.5725 12.0738 23.5725C12.2073 23.5725 12.3383 23.5182 12.4328 23.4237C12.5272 23.3293 12.5816 23.1983 12.5816 23.0647C12.5816 22.9311 12.5272 22.8001 12.4328 22.7057Z" fill="#535353"/>
<path d="M10.7845 2.71994C10.69 2.62548 10.559 2.57166 10.4255 2.57166C10.2914 2.57166 10.1609 2.62548 10.0664 2.71994C9.97147 2.8149 9.91764 2.94541 9.91764 3.07947C9.91764 3.21302 9.97147 3.34404 10.0664 3.43849C10.1609 3.53294 10.2913 3.58677 10.4255 3.58677C10.559 3.58677 10.69 3.53294 10.7845 3.43849C10.8789 3.34404 10.9333 3.21302 10.9333 3.07947C10.9333 2.94541 10.8789 2.8149 10.7845 2.71994Z" fill="#535353"/>
</g>
<defs>
<clipPath id="clip0">
<rect width="26" height="26" fill="white"/>
</clipPath>
</defs>
</svg>
