<svg width="9" height="8" viewBox="0 0 9 8" fill="none" xmlns="http://www.w3.org/2000/svg">
<g clip-path="url(#clip0)">
<path d="M7.21881 2.10498C7.05312 2.18514 6.98379 2.38452 7.06394 2.55013C7.28294 3.00252 7.39394 3.49015 7.39394 4C7.39394 5.83797 5.89858 7.33333 4.06061 7.33333C2.22264 7.33333 0.727275 5.83797 0.727275 4C0.727275 2.16203 2.22264 0.666667 4.06061 0.666667C4.82225 0.666667 5.53774 0.915365 6.12994 1.38582C6.27358 1.50049 6.48362 1.47648 6.59829 1.33236C6.71295 1.18831 6.68894 0.978516 6.54474 0.864014C5.84365 0.306803 4.96141 0 4.06061 0C1.85512 0 0.0606079 1.79452 0.0606079 4C0.0606079 6.20549 1.85512 8 4.06061 8C6.26609 8 8.06061 6.20549 8.06061 4C8.06061 3.38883 7.92714 2.80314 7.66396 2.25985C7.58396 2.09383 7.38393 2.02466 7.21881 2.10498Z" fill="white"/>
<path d="M4.0606 1.33337C3.8766 1.33337 3.72726 1.48271 3.72726 1.66671V4.00004C3.72726 4.18404 3.8766 4.33337 4.0606 4.33337H5.72726C5.91127 4.33337 6.0606 4.18404 6.0606 4.00004C6.0606 3.81604 5.91127 3.66671 5.72726 3.66671H4.39393V1.66671C4.39393 1.48271 4.2446 1.33337 4.0606 1.33337Z" fill="white"/>
</g>
<defs>
<clipPath id="clip0">
<rect width="8" height="8" fill="white" transform="translate(0.0606079)"/>
</clipPath>
</defs>
</svg>
