<svg width="791" height="1174" viewBox="0 0 791 1174" fill="none" xmlns="http://www.w3.org/2000/svg">
<path d="M395.5 0C218.17 0 68.0982 116.706 17.9023 277.501C-5.5639 352.671 18.6002 432.089 54.2859 502.287L377.671 1138.43C385.084 1153.01 405.916 1153.01 413.329 1138.43L736.714 502.287C772.4 432.089 796.564 352.671 773.098 277.501C722.902 116.706 572.83 0 395.5 0Z" fill="#134B66"/>
<circle cx="445" cy="418" r="53" fill="#E60B64"/>
<path d="M587.7 467.5C593.078 451.993 596 435.338 596 418C596 334.605 528.395 267 445 267C361.605 267 294 334.605 294 418C294 461.555 312.441 500.803 341.94 528.362C351.436 537.233 358 549.161 358 562.155V677" stroke="#E60B64" stroke-width="35" stroke-linecap="round"/>
<path d="M474 677C474 709.033 448.033 735 416 735C383.967 735 358 709.033 358 677" stroke="#E60B64" stroke-width="35" stroke-linecap="round"/>
<path d="M196 418C196 280.481 307.481 169 445 169" stroke="#E60B64" stroke-width="35" stroke-linecap="round"/>
</svg>
