<svg width="22" height="22" viewBox="0 0 22 22" fill="none" xmlns="http://www.w3.org/2000/svg">
<g clip-path="url(#clip0)">
<path d="M8.02087 16.1443V20.3958C8.02087 20.6928 8.21154 20.9559 8.49387 21.0494C8.56446 21.0723 8.63687 21.0833 8.70837 21.0833C8.92287 21.0833 9.13004 20.9824 9.26204 20.8028L11.749 17.4185L8.02087 16.1443Z" fill="#134B66"/>
<path d="M21.7108 0.126643C21.5 -0.0227733 21.2231 -0.0429399 20.994 0.0771434L0.368969 10.848C0.125136 10.9754 -0.0187809 11.2357 0.00138582 11.5098C0.0224692 11.7848 0.204886 12.0195 0.464303 12.1084L6.19806 14.0682L18.409 3.62739L8.95997 15.0115L18.5694 18.2959C18.6409 18.3197 18.7161 18.3326 18.7912 18.3326C18.9159 18.3326 19.0396 18.2986 19.1487 18.2326C19.3229 18.1263 19.4411 17.9476 19.4714 17.7468L21.9922 0.788477C22.0298 0.53181 21.9216 0.276977 21.7108 0.126643Z" fill="#134B66"/>
</g>
<defs>
<clipPath id="clip0">
<rect width="22" height="22" fill="white"/>
</clipPath>
</defs>
</svg>
