<svg width="14" height="14" viewBox="0 0 14 14" fill="none" xmlns="http://www.w3.org/2000/svg">
<g clip-path="url(#clip0)">
<path d="M13.6742 1.67026L13.4029 1.39902C13.3229 1.31893 13.193 1.31896 13.1129 1.39902C13.0329 1.47911 13.0329 1.60893 13.1129 1.68899L13.3842 1.96023C13.6594 2.23538 13.6594 2.68306 13.3842 2.95821L13.0104 3.33207L10.6689 0.990627L11.0428 0.61677C11.3179 0.34162 11.7656 0.34162 12.0408 0.61677L12.4376 1.01365C12.5177 1.09371 12.6475 1.09371 12.7276 1.01365C12.8077 0.93359 12.8077 0.80374 12.7276 0.72368L12.3307 0.3268C12.12 0.11607 11.8398 0 11.5417 0C11.2437 0 10.9635 0.11607 10.7528 0.3268L2.53494 8.54463C2.45485 8.62469 2.45485 8.75454 2.53494 8.8346C2.615 8.91466 2.74485 8.91466 2.82491 8.8346L9.47521 2.1843L10.5009 3.21004L2.06702 11.6438L1.39696 11.3428C1.37271 11.3319 1.35338 11.3125 1.34249 11.2883L1.04137 10.6182L2.15178 9.50781C2.23187 9.42775 2.23187 9.2979 2.15178 9.21784C2.07172 9.13778 1.94187 9.13778 1.86181 9.21784C1.86181 9.21784 0.6493 10.4308 0.648124 10.4321C0.595216 10.4876 0.589174 10.565 0.575311 10.6374C0.563827 10.6974 0.0108472 13.5828 0.00704651 13.6027C-0.0138433 13.7117 0.0205265 13.8236 0.0990002 13.9021C0.162353 13.9654 0.247499 14.0001 0.335323 14.0001C0.356268 14.0001 0.377404 13.9981 0.398403 13.994C0.398403 13.994 3.46527 13.4063 3.46683 13.406C3.50159 13.3989 3.54069 13.3795 3.56759 13.3544C3.56931 13.3528 13.6743 3.24823 13.6743 3.24823C14.1092 2.81318 14.1092 2.10531 13.6742 1.67026V1.67026ZM0.573315 12.8265L0.584307 12.7691L1.23189 13.4167L1.22886 13.4173L0.43075 13.5702L0.573315 12.8265ZM1.71859 13.3234L0.677573 12.2824L0.875507 11.2496L0.96839 11.4564C1.02045 11.5722 1.11292 11.6647 1.22883 11.7168L1.95688 12.044L2.2841 12.7721C2.33616 12.888 2.42866 12.9804 2.54451 13.0325L2.75138 13.1255L1.71859 13.3234ZM3.38281 12.9596L2.71264 12.6585C2.68841 12.6476 2.66905 12.6282 2.65817 12.604L2.35702 11.9338L10.791 3.50001L11.8167 4.52574L3.38281 12.9596ZM12.1066 4.2358L9.76521 1.89436L10.3789 1.28062L12.7204 3.62206L12.1066 4.2358Z" fill="#134B66"/>
</g>
<defs>
<clipPath id="clip0">
<rect width="14" height="14" fill="white"/>
</clipPath>
</defs>
</svg>
