<svg width="352" height="512" viewBox="0 0 352 512" fill="none" xmlns="http://www.w3.org/2000/svg">
<path d="M351.003 328.124V243.75C351.003 219.634 338.267 200.104 316.933 191.507C305.448 186.878 293.56 186.438 284.245 189.842C279.999 184.442 274.397 179.918 267.666 176.625C254.841 170.35 240.35 169.49 228.778 173.824C222.75 166.704 214.31 161.401 204.148 158.773C195.64 156.574 187.285 156.585 180.105 158.495L178.437 81.7868C177.952 59.4789 160.927 42.005 139.679 42.005C118.306 42.005 100.918 59.9489 100.918 82.0048V273.489C96.8877 269.486 93.8967 265.259 90.8178 260.906C83.1718 250.099 74.5068 237.849 50.8029 232.737C30.728 228.41 13.4371 238.358 5.8671 249.436C-0.11888 258.198 -0.615872 268.081 4.53811 275.874C6.0591 278.173 7.83909 280.461 9.72408 282.884C15.8961 290.819 24.348 301.685 32.625 324.406C44.155 356.056 64.0689 370.337 80.0708 381.812C95.5057 392.881 107.164 401.252 109.892 422.035C104.679 422.377 100.553 426.702 100.553 432.002V502.002C100.553 507.525 105.031 512.002 110.553 512.002H331.779C337.301 512.002 341.779 507.525 341.779 502.002V432.002C341.779 426.68 337.619 422.343 332.375 422.033C333.705 409.289 337.292 396.313 341.051 382.734C345.944 365.064 351.003 346.796 351.003 328.124ZM321.78 492H120.555V442H176.163C181.685 442 186.163 437.523 186.163 432C186.163 426.478 181.685 422.001 176.163 422.001H130.015C126.891 390.796 109.045 377.977 91.7278 365.558C76.5398 354.665 60.8329 343.403 51.4179 317.558C42.065 291.884 32.104 279.078 25.512 270.603C23.798 268.4 22.318 266.497 21.221 264.838C20.43 263.643 22.18 261.014 22.382 260.718C26.322 254.95 36.146 250.034 46.5869 252.287C62.6779 255.757 67.3769 262.4 74.4908 272.456C80.1658 280.478 87.0788 290.249 100.918 298.625V302.751C100.918 308.274 105.396 312.751 110.918 312.751C116.44 312.751 120.918 308.274 120.918 302.751V82.0028C120.918 70.9749 129.335 62.0029 139.68 62.0029C149.784 62.0029 158.2 71.0719 158.442 82.2198L161.317 214.468C161.436 219.916 165.888 224.251 171.311 224.251C171.384 224.251 171.458 224.25 171.533 224.249C177.054 224.129 181.433 219.556 181.313 214.034L180.572 179.956C183.812 177.332 191.128 176.061 199.14 178.134C203.803 179.34 219.016 184.647 219.016 202.312C219.016 207.835 223.494 212.312 229.016 212.312C234.538 212.312 239.016 207.835 239.016 202.312C239.016 198.724 238.616 195.25 237.845 191.928C244.042 190.367 252.048 191.248 258.875 194.588C264.33 197.257 273.481 203.686 273.481 216.749C273.481 222.272 277.959 226.749 283.481 226.749C289.003 226.749 293.481 222.272 293.481 216.749C293.481 213.812 293.201 210.94 292.654 208.157C296.916 207.148 303.108 207.497 309.457 210.056C315.936 212.666 331.003 221.176 331.003 243.749V328.123C331.003 344.077 326.523 360.26 321.778 377.394C317.764 391.892 313.645 406.8 312.294 422H266.163C260.641 422 256.163 426.476 256.163 431.999C256.163 437.522 260.641 441.999 266.163 441.999H321.78V492Z" fill="#134B66"/>
<path d="M221.167 421.999H221.159C215.637 421.999 211.163 426.476 211.163 431.999C211.163 437.522 215.644 441.999 221.167 441.999C226.69 441.999 231.167 437.522 231.167 431.999C231.167 426.476 226.689 421.999 221.167 421.999V421.999Z" fill="#134B66"/>
<path d="M207.847 55.931H294.213L275.354 74.79C271.449 78.695 271.449 85.027 275.354 88.933C277.307 90.886 279.866 91.862 282.425 91.862C284.984 91.862 287.543 90.886 289.496 88.933L325.427 53.002C327.302 51.127 328.356 48.583 328.356 45.931C328.356 43.279 327.302 40.735 325.427 38.86L289.496 2.92998C285.59 -0.97502 279.26 -0.97602 275.353 2.92998C271.448 6.83498 271.448 13.167 275.353 17.072L294.212 35.931H207.846C202.324 35.931 197.846 40.408 197.846 45.931C197.846 51.454 202.324 55.931 207.847 55.931Z" fill="#134B66"/>
</svg>
