<svg width="468" height="512" viewBox="0 0 468 512" fill="none" xmlns="http://www.w3.org/2000/svg">
<path d="M274.242 461.968H346.406L431.04 407.651C462.155 387.682 466.857 344.072 440.714 317.93C413.692 290.907 368.368 296.992 349.43 330.186L274.242 461.968Z" fill="#89DF8F"/>
<path d="M193.758 461.968H121.594L36.9598 407.651C5.84483 387.682 1.14281 344.072 27.2856 317.93C54.3079 290.907 99.6319 296.992 118.57 330.186L193.758 461.968Z" fill="#89DF8F"/>
<path d="M354.658 233.044C326.372 259.396 282.838 276.282 234 276.282C185.161 276.282 141.626 259.395 113.34 233.043H113.334C100.081 255.918 92.4382 282.847 92.4382 311.674C92.4382 394.679 155.818 461.968 234 461.968C312.182 461.968 375.562 394.679 375.562 311.674C375.562 282.849 367.919 255.92 354.667 233.045H354.658V233.044Z" fill="#B8ECBC"/>
<path d="M388.369 80.9098C388.369 41.7508 356.625 10.0064 317.466 10.0064C290.379 10.0064 266.848 25.2012 254.909 47.5265C248.071 46.837 241.094 46.4738 234.001 46.4738C226.908 46.4738 219.931 46.837 213.093 47.5265C201.153 25.2012 177.621 10.0064 150.534 10.0064C111.376 10.0064 79.6321 41.7508 79.6321 80.9098C79.6321 94.8368 83.6637 107.815 90.6001 118.771C83.5276 131.947 79.6321 146.323 79.6321 161.377C79.6321 224.837 148.745 276.282 234.001 276.282C319.257 276.282 388.37 224.838 388.37 161.377C388.37 146.323 384.474 131.947 377.402 118.771C384.337 107.815 388.369 94.8368 388.369 80.9098Z" fill="#89DF8F"/>
<path d="M150.535 102.924C162.693 102.924 172.549 93.0679 172.549 80.9098C172.549 68.7518 162.693 58.8957 150.535 58.8957C138.377 58.8957 128.521 68.7518 128.521 80.9098C128.521 93.0679 138.377 102.924 150.535 102.924Z" fill="#8AA8BD"/>
<path d="M317.466 102.924C329.624 102.924 339.48 93.0679 339.48 80.9098C339.48 68.7518 329.624 58.8957 317.466 58.8957C305.307 58.8957 295.451 68.7518 295.451 80.9098C295.451 93.0679 305.307 102.924 317.466 102.924Z" fill="#8AA8BD"/>
<path d="M294.298 325.881C307.561 325.881 318.313 336.633 318.313 349.896V435.951C318.313 449.215 307.561 459.967 294.298 459.967C281.034 459.967 270.282 449.215 270.282 435.951V349.896C270.282 336.633 281.034 325.881 294.298 325.881Z" fill="#89DF8F"/>
<path d="M173.701 325.881C160.438 325.881 149.686 336.633 149.686 349.896V435.951C149.686 449.215 160.438 459.967 173.701 459.967C186.965 459.967 197.717 449.215 197.717 435.951V349.896C197.717 336.633 186.965 325.881 173.701 325.881Z" fill="#89DF8F"/>
<path d="M447.789 310.853C431.115 294.18 406.979 287.597 384.488 292.712C382.215 272.426 376.31 252.801 367.049 234.875C387.554 213.472 398.374 188.137 398.374 161.377C398.374 146.83 395.149 132.641 388.777 119.121C395.071 107.4 398.374 94.3024 398.374 80.9088C398.374 36.2953 362.079 1.52588e-05 317.465 1.52588e-05C289.808 1.52588e-05 264.335 14.028 249.492 37.0197C239.164 36.2853 228.836 36.2853 218.507 37.0197C203.665 14.028 178.192 1.52588e-05 150.534 1.52588e-05C105.921 1.52588e-05 69.6257 36.2953 69.6257 80.9088C69.6257 94.3024 72.9288 107.4 79.2228 119.121C72.8507 132.642 69.6257 146.83 69.6257 161.377C69.6257 188.134 80.4456 213.473 100.95 234.876C91.6978 252.785 85.795 272.39 83.5176 292.655C60.9131 287.363 37.1669 293.898 20.21 310.853C5.59765 325.467 -1.51291 345.631 0.702509 366.178C2.91793 386.724 14.1631 404.91 31.5553 416.072L116.189 470.388C117.803 471.423 119.678 471.973 121.594 471.973H147.543L124.599 494.917C120.691 498.825 120.691 505.161 124.599 509.069C126.553 511.022 129.114 512 131.674 512C134.235 512 136.797 511.022 138.75 509.069L163.695 484.124V501.993C163.695 507.518 168.175 511.999 173.701 511.999C179.228 511.999 183.708 507.518 183.708 501.993V484.124L208.653 509.069C210.607 511.022 213.168 512 215.728 512C218.289 512 220.851 511.022 222.804 509.069C226.711 505.162 226.711 498.826 222.804 494.917L199.86 471.973H268.137L245.195 494.917C241.288 498.825 241.288 505.161 245.195 509.069C247.149 511.022 249.71 512 252.271 512C254.831 512 257.393 511.022 259.346 509.069L284.291 484.124V501.993C284.291 507.518 288.771 511.999 294.298 511.999C299.824 511.999 304.304 507.518 304.304 501.993V484.124L329.249 509.069C331.203 511.022 333.764 512 336.324 512C338.885 512 341.447 511.022 343.4 509.069C347.308 505.162 347.308 498.826 343.4 494.917L320.456 471.973H346.405C348.321 471.973 350.196 471.423 351.809 470.388L436.444 416.072C453.836 404.91 465.081 386.724 467.296 366.178C469.513 345.631 462.402 325.467 447.789 310.853ZM173.702 449.96C165.977 449.96 159.693 443.676 159.693 435.951V349.896C159.693 342.171 165.977 335.887 173.702 335.887C181.427 335.887 187.711 342.171 187.711 349.896V435.951C187.711 443.676 181.426 449.96 173.702 449.96ZM173.702 315.874C154.943 315.874 139.681 331.136 139.681 349.896V409.407C116.083 383.413 102.445 348.266 102.445 311.674C102.445 289.717 107.252 268.214 116.395 248.791C135.807 263.917 159.812 274.969 186.76 281.077C192.149 282.294 197.509 278.921 198.73 273.529C199.951 268.14 196.573 262.78 191.183 261.559C143.466 250.745 107.237 222.32 94.5516 188.188C128.988 203.411 191.656 208.154 234 208.154C276.346 208.154 339.017 203.411 373.453 188.186C360.752 222.388 324.422 250.84 276.564 261.616C271.173 262.829 267.787 268.184 269 273.575C270.048 278.227 274.177 281.386 278.754 281.386C279.482 281.386 280.222 281.306 280.961 281.14C308.019 275.047 332.124 263.975 351.607 248.793C360.749 268.216 365.556 289.718 365.556 311.674C365.556 348.266 351.918 383.413 328.32 409.407V349.896C328.32 331.136 313.059 315.874 294.299 315.874C275.539 315.874 260.277 331.136 260.277 349.896V435.951C260.277 441.736 261.732 447.186 264.29 451.962H203.712C206.269 447.186 207.724 441.736 207.724 435.951V349.896C207.724 331.136 192.461 315.874 173.702 315.874ZM308.307 435.951C308.307 443.676 302.023 449.96 294.298 449.96C286.573 449.96 280.289 443.676 280.289 435.951V349.896C280.289 342.171 286.573 335.887 294.298 335.887C302.023 335.887 308.307 342.171 308.307 349.896V435.951ZM150.534 20.0128C173.046 20.0128 193.635 32.3638 204.268 52.2455C206.18 55.8208 210.059 57.8931 214.095 57.4818C227.295 56.153 240.706 56.153 253.906 57.4818C257.942 57.8861 261.821 55.8198 263.733 52.2455C274.365 32.3638 294.954 20.0128 317.465 20.0128C351.044 20.0128 378.361 47.3313 378.361 80.9088C378.361 92.4462 375.105 103.689 368.945 113.419C367.014 116.469 366.876 120.322 368.583 123.502C375.048 135.548 378.335 148.245 378.358 161.238C377.49 163.609 368.29 171.563 337.169 178.487C309.187 184.712 272.548 188.14 233.999 188.14C195.45 188.14 158.811 184.711 130.829 178.487C99.7099 171.564 90.508 163.61 89.6395 161.238C89.6625 148.244 92.9496 135.548 99.4147 123.502C101.122 120.322 100.984 116.469 99.0525 113.419C92.8926 103.688 89.6365 92.4462 89.6365 80.9088C89.6375 47.3313 116.956 20.0128 150.534 20.0128ZM42.3652 399.23C30.0963 391.356 22.1633 378.526 20.6003 364.033C19.0373 349.539 24.0535 335.314 34.3621 325.005C47.1793 312.186 65.506 307.811 82.4509 313.102C82.628 335.054 86.8747 356.157 95.118 375.984L73.7253 354.507C69.8248 350.593 63.4887 350.582 59.5742 354.48C55.6587 358.38 55.6467 364.716 59.5462 368.632L142.551 451.962H124.53L42.3652 399.23ZM447.4 364.032C445.838 378.527 437.904 391.356 425.635 399.23L343.471 451.962H325.45L408.455 368.632C412.354 364.717 412.342 358.381 408.427 354.48C404.511 350.581 398.176 350.592 394.276 354.507L372.883 375.983C381.125 356.156 385.372 335.053 385.549 313.101C402.495 307.809 420.814 312.18 433.639 325.004C443.946 335.314 448.963 349.538 447.4 364.032Z" fill="black"/>
<path d="M150.534 112.929C168.191 112.929 182.555 98.5652 182.555 80.9089C182.555 63.2525 168.191 48.8883 150.534 48.8883C132.878 48.8883 118.514 63.2525 118.514 80.9089C118.514 98.5652 132.878 112.929 150.534 112.929ZM150.534 68.9012C157.156 68.9012 162.542 74.2876 162.542 80.9089C162.542 87.5301 157.156 92.9165 150.534 92.9165C143.913 92.9165 138.527 87.5301 138.527 80.9089C138.527 74.2876 143.913 68.9012 150.534 68.9012Z" fill="black"/>
<path d="M317.465 112.929C335.122 112.929 349.486 98.5652 349.486 80.9089C349.486 63.2525 335.122 48.8883 317.465 48.8883C299.809 48.8883 285.445 63.2525 285.445 80.9089C285.445 98.5652 299.809 112.929 317.465 112.929ZM317.465 68.9012C324.087 68.9012 329.473 74.2876 329.473 80.9089C329.473 87.5301 324.087 92.9165 317.465 92.9165C310.844 92.9165 305.458 87.5301 305.458 80.9089C305.458 74.2876 310.844 68.9012 317.465 68.9012Z" fill="black"/>
<path d="M234 286.288C236.632 286.288 239.213 285.219 241.075 283.357C242.936 281.495 244.006 278.914 244.006 276.282C244.006 273.65 242.936 271.069 241.075 269.208C239.213 267.347 236.632 266.276 234 266.276C231.368 266.276 228.787 267.346 226.926 269.208C225.064 271.069 223.994 273.65 223.994 276.282C223.994 278.914 225.064 281.495 226.926 283.357C228.787 285.219 231.368 286.288 234 286.288Z" fill="black"/>
</svg>
