<svg width="488" height="512" viewBox="0 0 488 512" fill="none" xmlns="http://www.w3.org/2000/svg">
<path d="M304.652 356.917H314.493C331.881 356.917 345.976 342.821 345.976 325.434C345.976 308.047 331.88 293.951 314.493 293.951H244L145.571 257.775C113.031 282.618 92.0358 321.814 92.0358 365.915C92.0358 441.009 152.911 501.883 228.004 501.883H321.46C321.46 501.193 321.443 500.506 321.408 499.823C320.63 482.957 310.354 468.575 295.807 461.893H304.652V356.917Z" fill="#A7BDCD"/>
<path d="M385.299 164.585C390.049 165.489 394.95 165.961 399.963 165.961C443.031 165.961 477.945 131.048 477.945 87.9795C477.945 44.9116 443.031 9.99767 399.963 9.99767C366.006 9.99767 337.118 31.7016 326.415 61.9946L385.299 164.585Z" fill="#A7BDCD"/>
<path d="M399.964 123.971C419.842 123.971 435.956 107.857 435.956 87.9795C435.956 68.1019 419.842 51.9879 399.964 51.9879C380.087 51.9879 363.973 68.1019 363.973 87.9795C363.973 107.857 380.087 123.971 399.964 123.971Z" fill="white"/>
<path d="M102.701 164.585C97.9514 165.489 93.0496 165.961 88.0368 165.961C44.9688 165.961 10.0549 131.048 10.0549 87.9795C10.0549 44.9116 44.9688 9.99767 88.0368 9.99767C121.994 9.99767 150.882 31.7016 161.585 61.9946L102.701 164.585Z" fill="#A7BDCD"/>
<path d="M88.0367 123.971C107.914 123.971 124.028 107.857 124.028 87.9795C124.028 68.1019 107.914 51.9879 88.0367 51.9879C68.1591 51.9879 52.0451 68.1019 52.0451 87.9795C52.0451 107.857 68.1591 123.971 88.0367 123.971Z" fill="white"/>
<path d="M244 293.951C322.038 293.951 385.301 236.648 385.301 165.961C385.301 95.2749 322.038 37.9722 244 37.9722C165.963 37.9722 102.7 95.2749 102.7 165.961C102.7 236.648 165.963 293.951 244 293.951Z" fill="#A7BDCD"/>
<path d="M244 223.948C229.898 223.948 218.466 212.516 218.466 198.414V182.165C218.466 168.063 229.899 156.631 244 156.631C258.102 156.631 269.535 168.063 269.535 182.165V198.414C269.535 212.517 258.102 223.948 244 223.948Z" fill="#6D92AC"/>
<path d="M420.211 137.348L390.568 129.053C382.209 126.714 373.537 131.593 371.198 139.952L327.335 296.691C338.319 301.606 345.977 312.622 345.977 325.434C345.977 342.822 331.881 356.917 314.494 356.917H310.481L281.104 461.893H295.807C310.354 468.575 320.63 482.957 321.408 499.823C321.442 500.506 321.459 501.192 321.459 501.883C321.459 501.883 321.234 501.883 320.815 501.883C328.343 502.735 335.591 498.047 337.698 490.517L431.11 156.72C433.449 148.361 428.569 139.688 420.211 137.348Z" fill="#89DF8F"/>
<path d="M390.429 311.069C390.429 311.069 377.48 337.986 348.187 346.48C330.922 351.486 320.242 369.229 324.367 386.725C330.486 412.676 362.221 407.387 362.221 407.387C362.221 407.387 430.13 397.06 390.429 311.069Z" fill="#A7BDCD"/>
<path d="M180.515 135.967C177.886 135.967 175.306 137.037 173.447 138.898C171.587 140.756 170.518 143.336 170.518 145.965C170.518 148.594 171.587 151.174 173.447 153.033C175.306 154.893 177.886 155.963 180.515 155.963C183.145 155.963 185.724 154.894 187.584 153.033C189.443 151.174 190.513 148.594 190.513 145.965C190.513 143.336 189.443 140.756 187.584 138.898C185.724 137.037 183.144 135.967 180.515 135.967Z" fill="black"/>
<path d="M307.486 135.967C304.856 135.967 302.277 137.037 300.417 138.898C298.558 140.756 297.488 143.336 297.488 145.965C297.488 148.594 298.558 151.174 300.417 153.033C302.277 154.893 304.856 155.963 307.486 155.963C310.115 155.963 312.695 154.894 314.554 153.033C316.414 151.174 317.483 148.594 317.483 145.965C317.483 143.336 316.414 140.756 314.554 138.898C312.695 137.037 310.114 135.967 307.486 135.967Z" fill="black"/>
<path d="M244 146.633C224.408 146.633 208.469 162.572 208.469 182.165V198.414C208.469 218.006 224.408 233.946 244 233.946C263.593 233.946 279.532 218.006 279.532 198.414V182.165C279.532 162.572 263.592 146.633 244 146.633ZM259.537 198.414C259.537 206.98 252.568 213.95 244 213.95C235.433 213.95 228.464 206.98 228.464 198.414V182.165C228.464 173.599 235.433 166.628 244 166.628C252.568 166.628 259.537 173.599 259.537 182.165V198.414Z" fill="black"/>
<path d="M399.964 -7.62939e-06C366.8 -7.62939e-06 336.735 18.7146 321.795 47.5999C298.372 34.7369 271.78 27.9755 244.001 27.9755C215.581 27.9755 188.967 35.1608 166.227 47.6409C151.294 18.7316 121.216 -7.62939e-06 88.0367 -7.62939e-06C39.525 -7.62939e-06 0.0571899 39.4678 0.0571899 87.9796C0.0571899 136.491 39.525 175.959 88.0367 175.959C89.7234 175.959 91.408 175.895 93.0906 175.799C95.504 206.892 109.266 235.169 130.606 257.206C112.256 273.632 98.3903 294.311 90.2212 317.619C88.3947 322.83 91.139 328.535 96.3488 330.361C97.4426 330.744 98.5583 330.926 99.656 330.926C103.784 330.926 107.648 328.349 109.091 324.233C116.378 303.442 128.928 285.076 145.577 270.672C172.053 291.404 206.449 303.949 244.001 303.949H314.494C326.341 303.949 335.979 313.588 335.979 325.434C335.979 337.281 326.34 346.919 314.493 346.919H295.987C290.466 346.919 285.99 351.396 285.99 356.917C285.99 362.438 290.466 366.915 295.987 366.915H297.3L288.165 399.557C280.242 376.411 258.285 359.716 232.488 359.716C226.966 359.716 222.49 364.193 222.49 369.714C222.49 375.235 226.966 379.712 232.488 379.712C253.909 379.712 271.336 397.14 271.336 418.561C271.336 430.045 266.431 440.62 257.796 448.014H247.012C241.49 448.014 237.014 452.491 237.014 458.012C237.014 463.532 241.49 468.009 247.012 468.009H277.467C292.732 468.009 305.68 478.124 309.959 492.004H228.004C174.277 492.004 126.409 457.903 108.893 407.146C107.091 401.928 101.4 399.155 96.1809 400.958C90.9611 402.759 88.1907 408.451 89.9913 413.671C110.29 472.484 165.753 512 228.004 512C228.004 512 322.355 511.999 322.567 511.999C333.974 511.999 344.213 504.337 347.326 493.211L368.909 416.085C377.809 413.595 395.939 406.422 406.004 387.719C417.013 367.261 414.828 340.061 399.507 306.878C399.5 306.863 399.49 306.85 399.483 306.835L438.609 167.023C468.733 152.307 487.945 121.808 487.945 87.9796C487.944 39.4678 448.476 -7.62939e-06 399.964 -7.62939e-06V-7.62939e-06ZM93.1196 155.758C91.43 155.883 89.7344 155.964 88.0367 155.964C50.5505 155.964 20.0525 125.466 20.0525 87.9796C20.0525 50.4933 50.5505 19.9953 88.0367 19.9953C114.302 19.9953 138.054 35.1778 149.285 58.4464C142.994 63.0653 137.116 68.1322 131.71 73.5939C125.654 55.2612 108.371 41.9902 88.0367 41.9902C62.6786 41.9902 42.0474 62.6214 42.0474 87.9796C42.0474 113.338 62.6786 133.969 88.0367 133.969C91.12 133.969 94.1313 133.657 97.0467 133.076C95.0691 140.424 93.7444 148.004 93.1196 155.758ZM88.0367 113.974C73.7041 113.974 62.0428 102.313 62.0428 87.9796C62.0428 73.6459 73.7041 61.9856 88.0367 61.9856C102.369 61.9856 114.031 73.6459 114.031 87.9796C114.031 102.313 102.369 113.974 88.0367 113.974ZM328.208 256.473C304.632 274.205 274.816 283.954 244.001 283.954C171.599 283.954 112.697 231.023 112.697 165.961C112.697 100.902 171.599 47.9698 244.001 47.9698C299.441 47.9698 349.279 79.9214 367.721 126.429C364.84 129.44 362.726 133.132 361.571 137.258L328.208 256.473ZM328.787 485.26C323.49 469.064 310.73 456.225 294.587 450.812L313.645 382.707C313.823 384.805 314.14 386.912 314.637 389.019C319.166 408.225 334.24 415.496 347.786 417.37L328.787 485.26ZM388.487 378.074C379.938 394.181 360.854 397.48 360.718 397.503C360.671 397.511 360.624 397.518 360.577 397.525C359.66 397.681 338.026 401.085 334.099 384.43C331.244 372.325 338.812 359.607 350.972 356.082C367.976 351.151 380.117 340.932 387.997 331.965C394.265 351.055 394.471 366.8 388.487 378.074ZM421.482 154.025L376.651 314.226C376.645 314.246 376.643 314.266 376.637 314.287C372.446 319.954 365.417 327.601 355.291 332.887C355.732 330.467 355.974 327.979 355.974 325.434C355.974 311.735 349.295 299.57 339.026 292.013L380.826 142.648C381.238 141.176 382.197 139.953 383.529 139.205C384.86 138.456 386.404 138.268 387.875 138.682L417.517 146.977C420.552 147.826 422.332 150.988 421.482 154.025ZM373.97 87.9796C373.97 73.6459 385.632 61.9856 399.964 61.9856C414.297 61.9856 425.958 73.6459 425.958 87.9796C425.958 102.313 414.297 113.974 399.964 113.974C385.632 113.974 373.97 102.313 373.97 87.9796ZM439.877 143.04C437.028 135.853 430.993 130.023 423.009 127.752C436.714 119.78 445.953 104.943 445.953 87.9796C445.953 62.6214 425.321 41.9902 399.963 41.9902C379.647 41.9902 362.376 55.2382 356.307 73.5449C350.913 68.0802 345.041 63.0014 338.747 58.3774C349.992 35.1478 373.725 19.9953 399.964 19.9953C437.451 19.9953 467.948 50.4933 467.948 87.9796C467.948 110.129 457.291 130.435 439.877 143.04Z" fill="black"/>
<path d="M92.0358 375.912C89.4064 375.912 86.827 374.843 84.9675 372.982C83.1079 371.123 82.0381 368.543 82.0381 365.914C82.0381 363.285 83.1079 360.705 84.9675 358.847C86.827 356.987 89.4064 355.916 92.0358 355.916C94.6652 355.916 97.2446 356.986 99.1042 358.847C100.964 360.705 102.034 363.286 102.034 365.914C102.034 368.543 100.964 371.123 99.1042 372.982C97.2446 374.843 94.6642 375.912 92.0358 375.912Z" fill="black"/>
</svg>
