<svg width="512" height="476" viewBox="0 0 512 476" fill="none" xmlns="http://www.w3.org/2000/svg">
<path d="M403.594 202.195C406.259 205.423 411.026 205.853 414.221 203.21L430.235 189.991C432.325 190.918 434.633 191.443 437.067 191.443C446.39 191.443 453.947 183.885 453.947 174.563C453.947 167.957 450.144 162.253 444.615 159.48V145.346C444.615 141.177 441.236 137.797 437.066 137.797C432.897 137.797 429.517 141.177 429.517 145.346V159.48C423.989 162.253 420.185 167.957 420.185 174.563C420.185 175.865 420.347 177.128 420.626 178.345L404.609 191.567C401.395 194.222 400.94 198.98 403.594 202.195V202.195Z" fill="#134B66"/>
<path d="M498.412 417.392H487.641V398.782C487.641 391.29 481.546 385.194 474.053 385.194H469.664V368.043C469.664 360.551 463.569 354.455 456.076 354.455H444.612V249.117C482.402 245.32 512 213.334 512 174.563C512 170.303 511.638 166.028 510.926 161.856C510.224 157.747 506.319 154.983 502.215 155.686C498.106 156.388 495.343 160.288 496.045 164.398C496.614 167.733 496.903 171.153 496.903 174.563C496.903 207.557 470.06 234.4 437.066 234.4C404.072 234.4 377.229 207.557 377.229 174.563C377.229 141.569 404.072 114.726 437.066 114.726C453.743 114.726 469.224 121.419 480.656 133.571C483.514 136.608 488.292 136.753 491.326 133.896C494.363 131.04 494.509 126.262 491.652 123.226C477.544 108.229 457.647 99.629 437.065 99.629C395.746 99.629 362.131 133.244 362.131 174.563C362.131 213.334 391.729 245.32 429.516 249.118V354.456H418.052C410.559 354.456 404.464 360.551 404.464 368.044V385.195H400.075C392.582 385.195 386.487 391.29 386.487 398.783V417.393H359.322C365.261 408.049 368.52 397.106 368.52 385.882C368.52 374.078 365.014 362.677 358.38 352.912L303.324 271.863C289.837 252.009 272.903 235.261 253.63 222.163V32.711C253.63 14.674 238.956 0 220.919 0H13.588C6.095 0.001 0 6.096 0 13.588V91.074C0 95.243 3.38 98.623 7.549 98.623C11.718 98.623 15.098 95.243 15.098 91.074V85.443C78.447 90.746 132.54 131.075 155.818 189.944C153.33 189.845 150.837 189.777 148.334 189.777H15.097V128.409C15.097 124.24 11.717 120.86 7.548 120.86C3.379 120.86 0 124.24 0 128.409V461.504C0 468.996 6.095 475.092 13.588 475.092H391.053C395.222 475.092 398.602 471.712 398.602 467.543C398.602 463.374 395.223 459.994 391.053 459.994H15.097V432.489H496.902V459.994H427.777C423.608 459.994 420.228 463.374 420.228 467.543C420.228 471.712 423.607 475.092 427.777 475.092H498.412C505.905 475.092 512 468.997 512 461.504V430.979C512 423.487 505.905 417.392 498.412 417.392V417.392ZM419.564 369.553H454.569V385.194H419.564V369.553ZM401.587 400.292H472.544V417.392H401.587V400.292ZM337.549 349.107H302.649C295.474 349.107 288.737 345.595 284.629 339.713L248.637 288.186C246.582 285.244 247.645 282.46 248.198 281.399C248.751 280.339 250.424 277.872 254.013 277.872H289.104C289.684 278.696 337.549 349.107 337.549 349.107V349.107ZM112.096 107.7C83.963 85.914 50.488 73.017 15.097 70.292V15.098H220.923C230.635 15.098 238.536 22.999 238.536 32.711V212.916C218.199 201.746 195.807 194.359 172.419 191.337C160.823 158.212 140.017 129.322 112.096 107.7ZM167.152 277.873C172.424 277.873 176.714 282.162 176.714 287.435V339.546C176.714 344.818 172.425 349.108 167.152 349.108H100.435V277.873H167.152ZM85.337 349.108H15.097V277.873H85.337V349.108ZM15.097 364.205H167.151C180.748 364.205 191.81 353.143 191.81 339.546V287.434C191.81 273.837 180.748 262.775 167.151 262.775H15.097V204.873H148.333C197.976 204.873 244.698 226.185 277.157 262.775H254.013C245.912 262.775 238.555 267.237 234.81 274.42C231.066 281.603 231.621 290.191 236.26 296.831L272.252 348.358C279.182 358.28 290.546 364.204 302.649 364.204H347.653C351.439 370.795 353.426 378.223 353.426 385.88C353.426 397.752 348.51 409.195 339.932 417.391H15.097V364.205Z" fill="#134B66"/>
</svg>
