<svg width="350" height="512" viewBox="0 0 350 512" fill="none" xmlns="http://www.w3.org/2000/svg">
<path d="M109.032 339.324V441.42V502C158.779 502 199.108 461.672 199.108 411.924V339.324H109.032Z" fill="#FF5D7D"/>
<path d="M103.04 339.324H187.986C233.504 339.324 270.404 302.424 270.404 256.906V68.766C270.404 36.31 244.094 10 211.638 10C151.661 10 103.04 58.621 103.04 118.598V128.516V339.324Z" fill="#89DF8F"/>
<path d="M42.071 386.729C107.242 386.729 160.073 333.898 160.073 268.726V198.997C160.073 166.412 133.657 139.996 101.072 139.996C68.487 139.996 42.071 166.412 42.071 198.997V228.789V386.729Z" fill="#80B6FF"/>
<path d="M101.072 139.997C133.658 139.997 160.073 166.413 160.073 198.998V268.727C160.073 269.774 160.058 270.818 160.031 271.859C159.218 287.425 146.34 299.796 130.572 299.796C114.279 299.796 101.071 286.588 101.071 270.296C101.071 286.589 87.863 299.796 71.571 299.796C55.278 299.796 42.07 286.588 42.07 270.296V228.79V198.998C42.071 166.412 68.487 139.997 101.072 139.997Z" fill="#FFCD69"/>
<path d="M270.411 61.818V89.53C270.411 107.293 255.827 121.762 238.064 121.762C242.174 136.927 254.754 148.608 270.411 151.415V181.568C303.479 181.568 330.286 154.761 330.286 121.693C330.286 88.625 303.479 61.818 270.411 61.818Z" fill="#FF5D7D"/>
<path d="M222.75 87.67C224.609 85.81 225.68 83.23 225.68 80.6C225.68 77.97 224.61 75.39 222.75 73.53C220.89 71.67 218.31 70.6 215.68 70.6C213.04 70.6 210.47 71.67 208.6 73.53C206.741 75.39 205.68 77.97 205.68 80.6C205.68 83.23 206.741 85.81 208.6 87.67C210.47 89.53 213.04 90.6 215.68 90.6C218.31 90.6 220.89 89.53 222.75 87.67Z" fill="black"/>
<path d="M339.925 329.324H245.336C266.686 312.381 280.404 286.217 280.404 256.907V190.842C314.215 185.977 340.286 156.829 340.286 121.693C340.286 85.865 313.176 56.264 278.394 52.288C270.991 22.304 243.876 0 211.638 0C197.05 0 182.801 2.62 169.287 7.788C164.128 9.761 161.545 15.541 163.517 20.7C165.489 25.858 171.272 28.44 176.429 26.469C187.655 22.176 199.501 20 211.639 20C238.529 20 260.405 41.876 260.405 68.766C260.405 68.812 260.411 68.856 260.412 68.901V89.53C260.412 101.789 250.388 111.762 238.065 111.762C234.951 111.762 232.015 113.213 230.123 115.686C228.231 118.159 227.599 121.373 228.414 124.378C232.796 140.545 244.943 153.46 260.412 159.048L260.405 256.906C260.405 296.837 227.919 329.323 187.987 329.323H154.795C164.537 311.274 170.074 290.635 170.074 268.725V198.996C170.074 165.032 145.4 136.741 113.041 131.055V118.596C113.041 106.257 115.289 94.226 119.722 82.84C121.726 77.694 119.178 71.897 114.032 69.893C108.884 67.89 103.089 70.438 101.086 75.584C95.748 89.293 93.042 103.765 93.042 118.596V130.478C58.768 134.472 32.073 163.667 32.073 198.996V329.323H10.075C4.55201 329.323 0.0750122 333.8 0.0750122 339.323C0.0750122 344.846 4.55201 349.323 10.075 349.323H32.071V386.728C32.071 392.251 36.549 396.728 42.071 396.728C62.523 396.728 81.866 391.898 99.032 383.332V502C99.032 507.523 103.51 512 109.032 512C164.215 512 209.108 467.106 209.108 411.924V349.324H244.789L289.266 393.8C291.219 395.753 293.778 396.729 296.337 396.729C298.896 396.729 301.455 395.752 303.408 393.8C307.313 389.895 307.313 383.563 303.408 379.658L273.074 349.324H339.924C345.446 349.324 349.924 344.847 349.924 339.324C349.925 333.801 345.447 329.324 339.925 329.324ZM252.546 129.219C268.787 123.307 280.411 107.747 280.411 89.531V72.825C303.136 77.469 320.286 97.615 320.286 121.693C320.286 145.77 303.136 165.917 280.411 170.561V151.415C280.411 146.573 276.942 142.426 272.176 141.572C264.186 140.14 257.186 135.602 252.546 129.219ZM52.071 198.998C52.071 171.979 74.052 149.997 101.072 149.997C128.092 149.997 150.073 171.979 150.073 198.998C150.073 198.998 150.061 270.097 150.048 270.78C149.787 281.307 141.161 289.796 130.573 289.796C119.82 289.796 111.072 281.048 111.072 270.295V221.794C111.072 216.271 106.594 211.794 101.072 211.794C95.55 211.794 91.072 216.271 91.072 221.794V270.295C91.072 281.048 82.324 289.796 71.571 289.796C60.819 289.796 52.071 281.048 52.071 270.295V198.998ZM52.071 304.625C57.829 307.908 64.482 309.795 71.571 309.795C83.292 309.795 93.831 304.658 101.072 296.524C108.312 304.658 118.852 309.795 130.573 309.795C134.814 309.795 138.896 309.113 142.728 307.871C128.176 345.165 93.474 372.453 52.071 376.27V304.625ZM189.108 411.924C189.108 452.693 158.486 486.444 119.032 491.379V370.941C127.345 364.666 134.869 357.401 141.433 349.324H189.108V411.924Z" fill="black"/>
<path d="M135.08 51.58C137.71 51.58 140.29 50.51 142.149 48.65C144.009 46.79 145.08 44.21 145.08 41.58C145.08 38.95 144.01 36.37 142.149 34.51C140.29 32.65 137.71 31.58 135.08 31.58C132.439 31.58 129.87 32.65 128.01 34.51C126.15 36.37 125.08 38.95 125.08 41.58C125.08 44.21 126.149 46.79 128.01 48.65C129.87 50.51 132.439 51.58 135.08 51.58Z" fill="black"/>
</svg>
