<svg width="480" height="513" viewBox="0 0 480 513" fill="none" xmlns="http://www.w3.org/2000/svg">
<path d="M383.494 171.276C295.801 171.276 221.654 113.283 197.311 33.5557C191.784 15.4519 214.265 2.04699 227.65 15.4319L383.494 171.276Z" fill="#E7E9EF"/>
<path d="M383.494 171.276C295.801 171.276 221.654 113.283 197.311 33.5557C191.784 15.4519 214.265 2.04699 227.65 15.4319L383.494 171.276Z" fill="#E7E9EF"/>
<path d="M363.965 455.841V425.2C397.063 394.527 418.512 351.463 420.935 303.381L292.16 239.465H181.074C108.578 239.465 49.8074 298.235 49.8074 370.731C49.8074 443.228 108.578 501.998 181.074 501.998H259.01L269.012 470.813C287.321 468.104 304.722 462.613 320.776 454.789L332.691 501.998H410.124C410.125 476.506 389.459 455.841 363.965 455.841Z" fill="#E7E9EF"/>
<path d="M459.523 213.148L446.866 194.869C428.265 168.007 397.67 151.98 364.997 151.98C322.994 151.98 288.944 186.029 288.944 228.033C288.944 270.035 322.995 304.086 364.997 304.086H411.882C443.886 304.086 469.83 278.141 469.83 246.138C469.831 234.349 466.235 222.84 459.523 213.148Z" fill="white"/>
<path d="M459.523 213.148L446.866 194.869C428.265 168.007 397.67 151.98 364.997 151.98C322.994 151.98 288.944 186.029 288.944 228.033C288.944 270.035 322.995 304.086 364.997 304.086H411.882C443.886 304.086 469.83 278.141 469.83 246.138C469.831 234.349 466.235 222.84 459.523 213.148Z" fill="white"/>
<path d="M55.8358 410.667C30.6148 410.667 10.1688 431.113 10.1688 456.334C10.1688 481.555 30.6148 502.001 55.8358 502.001C75.2718 502.001 91.8718 489.859 98.4638 472.747L55.8358 410.667Z" fill="#E7E9EF"/>
<path d="M383.468 171.287C307.524 215.134 214.313 201.984 153.368 145.11C139.529 132.195 152.296 109.345 170.581 114.245L383.468 171.287Z" fill="white"/>
<path d="M243.854 455.841H243.838C246.599 447.433 247.757 438.298 246.869 428.779C243.788 395.762 216.338 368.57 183.178 368.57C145.407 368.57 114.069 397.466 114.069 435.069C114.069 472.033 144.035 501.999 181 501.999H290.013C290.013 476.506 269.347 455.841 243.854 455.841Z" fill="white"/>
<path d="M459.523 213.148L446.866 194.869C428.265 168.007 397.67 151.98 364.997 151.98C322.994 151.98 288.944 186.029 288.944 228.033C288.944 270.035 322.995 304.086 364.997 304.086H411.882C443.886 304.086 469.83 278.141 469.83 246.138C469.831 234.349 466.235 222.84 459.523 213.148Z" fill="white"/>
<path d="M467.745 207.455L455.088 189.176C435.27 160.555 403.057 143.105 368.392 142.033L234.722 8.36092C225.395 -0.964988 211.521 -2.66097 200.194 4.13996C188.913 10.9159 183.911 23.9108 187.747 36.4757C197.785 69.3483 215.76 98.757 239.861 122.454L173.17 104.584C160.434 101.172 147.567 106.639 141.159 118.191C134.777 129.7 136.942 143.455 146.548 152.419C183.08 186.511 231.587 206.107 281.479 207.329C279.834 213.964 278.945 220.895 278.945 228.031C278.945 228.511 278.974 228.985 278.981 229.464H181.075C159.704 229.464 139.168 234.119 120.035 243.299C115.055 245.688 112.956 251.662 115.346 256.641C117.066 260.224 120.642 262.317 124.368 262.317C125.818 262.317 127.292 262 128.687 261.331C145.097 253.458 162.723 249.465 181.075 249.465H281.647C291.196 286.579 324.945 314.085 364.997 314.085H410.003C406.31 345.699 393.843 375.258 373.965 399.878V389.667C373.965 384.144 369.487 379.667 363.965 379.667C358.444 379.667 353.966 384.144 353.966 389.667V455.841C353.966 461.364 358.444 465.84 363.965 465.84C380.436 465.84 394.369 476.91 398.719 492H340.482L316.863 398.418C315.511 393.063 310.073 389.817 304.719 391.169C299.365 392.521 296.118 397.957 297.47 403.312L309.043 449.165C299.525 453.249 289.665 456.438 279.562 458.694C272.888 453.181 264.927 449.174 256.2 447.209C257.224 440.848 257.434 434.372 256.827 427.851C253.201 389.002 220.851 358.572 183.179 358.572C162.19 358.572 142.444 366.347 127.575 380.468C112.419 394.862 104.071 414.254 104.071 435.07C104.071 448.07 107.324 460.318 113.04 471.067C80.9363 449.229 59.8085 412.403 59.8085 370.733C59.8085 352.868 63.6004 335.667 71.0794 319.608C73.4103 314.601 71.2423 308.652 66.2354 306.321C61.2254 303.99 55.2785 306.158 52.9485 311.165C44.2296 329.888 39.8087 349.93 39.8087 370.734C39.8087 381.513 41.0266 392.011 43.3246 402.104C18.6379 407.798 0.170044 429.944 0.170044 456.336C0.170044 487.03 25.1418 512.002 55.8355 512.002C74.3763 512.002 91.6122 502.576 101.849 487.637C124.42 502.982 151.644 511.97 180.926 512C180.951 512 180.975 512.002 181 512.002H290.013C295.535 512.002 300.013 507.525 300.013 502.002C300.013 492.546 297.655 483.633 293.509 475.806C300.464 473.862 307.299 471.511 313.991 468.773L322.995 504.449C324.116 508.89 328.111 512.002 332.691 512.002H410.125C415.647 512.002 420.125 507.525 420.125 502.002C420.125 474.447 400.179 451.464 373.965 446.735V429.5C406.493 397.942 426.305 356.438 430.373 311.51C458.879 303.435 479.83 277.197 479.83 246.14C479.83 232.25 475.652 218.874 467.745 207.455ZM55.8345 492C36.1687 492 20.1688 476 20.1688 456.334C20.1688 438.944 32.6807 424.431 49.1726 421.3C57.1585 442.06 69.9024 460.477 86.0742 475.196C79.6333 485.448 68.1964 492 55.8345 492ZM181.074 492C181.024 492 180.975 491.998 180.926 491.998C149.569 491.958 124.07 466.435 124.07 435.069C124.07 403.387 150.034 378.57 183.178 378.57C210.634 378.57 234.237 401.032 236.912 429.708C237.643 437.548 236.777 445.291 234.337 452.722C233.337 455.768 233.858 459.11 235.738 461.706C237.619 464.303 240.632 465.841 243.838 465.841H243.855C260.324 465.841 274.258 476.911 278.607 492.001H181.074V492ZM206.875 30.6357C205.156 25.0068 209.209 22.0558 210.491 21.2848C211.793 20.5048 216.362 18.2838 220.579 22.5028L342.935 144.859C339.938 145.655 337.01 146.617 334.15 147.72L290.016 135.894C249.925 112.311 220.407 74.9523 206.875 30.6357ZM160.192 137.798C155.89 133.783 157.923 129.201 158.649 127.892C159.384 126.566 162.231 122.359 167.994 123.903L309.959 161.942C301.516 168.986 294.438 177.61 289.186 187.361C241.653 188.074 194.913 170.201 160.192 137.798ZM411.883 294.086H364.997C328.576 294.086 298.944 264.454 298.944 228.033C298.944 191.611 328.576 161.979 364.997 161.979C394.384 161.979 421.916 176.402 438.645 200.562L451.302 218.84C456.881 226.898 459.83 236.338 459.83 246.138C459.831 272.576 438.321 294.086 411.883 294.086Z" fill="black"/>
<path d="M384.168 209.003C381.528 209.003 378.958 210.073 377.088 211.933C375.228 213.793 374.168 216.373 374.168 219.003C374.168 221.633 375.228 224.213 377.088 226.073C378.958 227.933 381.528 229.003 384.168 229.003C386.798 229.003 389.368 227.933 391.238 226.073C393.097 224.213 394.168 221.633 394.168 219.003C394.168 216.373 393.098 213.793 391.238 211.933C389.378 210.072 386.798 209.003 384.168 209.003Z" fill="black"/>
<path d="M87.7212 288.451C85.0912 288.451 82.5112 287.381 80.6512 285.521C78.7922 283.661 77.7212 281.081 77.7212 278.451C77.7212 275.821 78.7912 273.241 80.6512 271.381C82.5112 269.521 85.0912 268.451 87.7212 268.451C90.3612 268.451 92.9312 269.521 94.7912 271.381C96.6502 273.241 97.7212 275.821 97.7212 278.451C97.7212 281.081 96.6512 283.661 94.7912 285.521C92.9312 287.381 90.3612 288.451 87.7212 288.451Z" fill="black"/>
</svg>
