<svg width="512" height="406" viewBox="0 0 512 406" fill="none" xmlns="http://www.w3.org/2000/svg">
<path d="M426.268 125.427C412.649 125.427 399.378 127.808 386.946 132.254C387.178 132.748 387.42 133.235 387.648 133.731C359.137 169.862 319.326 195.381 274.591 206.203L273.188 206.543L266.051 206.999C272.549 252.994 248.619 299.701 204.249 320.098C170.329 335.69 133.295 336.02 100.87 323.953C78.8712 339.884 64.558 365.774 64.558 395.011H248.816C358.817 395.011 447.99 305.838 447.99 195.837V125.427H426.268Z" fill="#FFDA8F"/>
<path d="M481.995 65.4173C493.043 65.4173 501.998 56.4616 501.998 45.4142C501.998 34.3668 493.043 25.4111 481.995 25.4111C470.948 25.4111 461.992 34.3668 461.992 45.4142C461.992 56.4616 470.948 65.4173 481.995 65.4173Z" fill="#FF9EB1"/>
<path d="M401.983 65.4173C413.03 65.4173 421.986 56.4616 421.986 45.4142C421.986 34.3668 413.03 25.4111 401.983 25.4111C390.936 25.4111 381.98 34.3668 381.98 45.4142C381.98 56.4616 390.936 65.4173 401.983 65.4173Z" fill="#FF9EB1"/>
<path d="M108.132 30.2648C23.5256 69.1568 -13.5331 169.272 25.3589 253.878C56.4727 321.564 136.564 351.21 204.25 320.097C248.62 299.7 272.55 252.994 266.052 206.998L273.189 206.542L274.592 206.202C319.327 195.38 359.137 169.861 387.649 133.73C339.033 27.9735 213.889 -18.3497 108.132 30.2648Z" fill="#A0C8FF"/>
<path d="M512 45.4142C512 28.8696 498.54 15.4096 481.995 15.4096C465.451 15.4096 451.991 28.8696 451.991 45.4142C451.991 56.5349 458.077 66.2544 467.088 71.4372L446.736 107.353L418.461 70.4711C426.602 65.0992 431.988 55.8758 431.988 45.4142C431.988 28.8696 418.528 15.4096 401.983 15.4096C385.438 15.4096 371.978 28.8696 371.978 45.4142C371.978 60.1485 382.658 72.4284 396.68 74.9397L428.255 116.125C416.251 116.952 404.294 118.512 392.496 120.85C370.828 78.7233 335.927 44.387 293.34 23.5368C248.498 1.58142 197.104 -4.59854 148.631 6.13212C143.237 7.3263 139.834 12.6661 141.027 18.059C142.22 23.4528 147.564 26.8553 152.954 25.6621C242.453 5.84907 335.169 50.564 375.887 132.328C349.601 163.527 313.77 185.988 274.184 196C272.407 188.163 269.795 180.393 266.308 172.807C244.123 124.546 186.815 103.333 138.553 125.518C98.9442 143.725 81.5316 190.764 99.7394 230.374C114.766 263.064 153.588 277.433 186.278 262.407C199.431 256.361 209.443 245.553 214.469 231.976C219.495 218.399 218.933 203.678 212.886 190.524C207.825 179.515 198.781 171.136 187.419 166.929C176.057 162.722 163.737 163.193 152.726 168.254C147.707 170.56 145.508 176.499 147.816 181.518C150.122 186.538 156.059 188.735 161.081 186.429C167.235 183.6 174.123 183.336 180.475 185.689C186.827 188.04 191.883 192.724 194.711 198.879C198.527 207.178 198.882 216.467 195.71 225.033C192.54 233.599 186.223 240.417 177.923 244.233C155.254 254.652 128.334 244.689 117.914 222.02C111.325 207.687 110.713 191.646 116.189 176.852C121.665 162.058 132.574 150.282 146.908 143.693C185.144 126.118 230.556 142.925 248.133 181.163C270.681 230.214 249.118 288.463 200.068 311.011C169.758 324.943 135.839 326.24 104.558 314.66C104.513 314.643 104.469 314.625 104.424 314.608C104.362 314.584 104.3 314.559 104.238 314.536C73.1073 302.918 48.3264 279.906 34.4423 249.703C4.66869 184.933 21.9674 107.74 76.5108 61.9827C80.7424 58.4332 81.2955 52.1242 77.745 47.8926C74.1954 43.6599 67.8854 43.1088 63.6548 46.6584C2.23031 98.1883 -17.2557 185.12 16.2715 258.056C30.1006 288.141 53.2512 312.068 82.3767 326.768C64.739 344.875 54.5564 369.389 54.5564 395.01C54.5564 400.534 59.0351 405.012 64.5579 405.012H248.816C364.155 405.012 457.992 311.176 457.992 195.836V128.063L488.19 74.7717C501.772 71.9093 512 59.8354 512 45.4142ZM481.995 35.4126C487.51 35.4126 491.997 39.8993 491.997 45.4142C491.997 50.929 487.51 55.4157 481.995 55.4157C476.48 55.4157 471.994 50.929 471.994 45.4142C471.994 39.8993 476.482 35.4126 481.995 35.4126ZM401.983 35.4126C407.498 35.4126 411.985 39.8993 411.985 45.4142C411.985 50.929 407.498 55.4157 401.983 55.4157C396.468 55.4157 391.981 50.929 391.981 45.4142C391.981 39.8993 396.469 35.4126 401.983 35.4126ZM437.989 195.836C437.989 300.146 353.126 385.009 248.816 385.009H75.2126C77.748 365.633 87.5835 347.751 102.716 335.19C117.522 340.067 132.771 342.503 147.99 342.503C168.597 342.503 189.143 338.047 208.427 329.183C253.506 308.461 279.306 262.695 276.933 215.926L276.945 215.923C323.276 204.716 365.083 178.05 394.802 140.793C409.019 137.887 423.487 136.148 437.99 135.609V195.836H437.989Z" fill="black"/>
<path d="M108.131 40.2654C110.761 40.2654 113.341 39.1952 115.201 37.3349C117.061 35.4746 118.132 32.8942 118.132 30.2638C118.132 27.6334 117.062 25.053 115.201 23.1927C113.341 21.3325 110.761 20.2623 108.131 20.2623C105.499 20.2623 102.92 21.3325 101.06 23.1927C99.1993 25.053 98.1292 27.6334 98.1292 30.2638C98.1292 32.8942 99.1983 35.4746 101.06 37.3349C102.92 39.1952 105.499 40.2654 108.131 40.2654Z" fill="black"/>
</svg>
