<svg width="512" height="436" viewBox="0 0 512 436" fill="none" xmlns="http://www.w3.org/2000/svg">
<path d="M256 206.501C251.857 206.501 248.5 209.859 248.5 214.001V223.539H241C236.857 223.539 233.5 226.897 233.5 231.039C233.5 235.181 236.857 238.539 241 238.539H256C260.143 238.539 263.5 235.181 263.5 231.039V214.001C263.5 209.859 260.143 206.501 256 206.501V206.501Z" fill="#134B66"/>
<path d="M261.198 15.4861C332.365 18.0821 390.206 73.8241 395.488 144.797V144.812C396.013 151.925 395.877 149.448 395.877 221.719H358.274V155.268C358.274 98.6951 312.204 52.9931 256 52.9931C199.73 52.9931 153.726 98.7621 153.726 155.268V221.719H116.123C116.123 149.119 116.089 154.051 116.214 150.435C117.74 106.212 140.153 65.2791 176.585 40.1061C179.992 37.7511 180.847 33.0801 178.491 29.6721C176.137 26.2651 171.466 25.4111 168.057 27.7651C131.275 53.1811 107.506 93.0031 102.238 136.76H40.604C30.967 136.76 23.127 144.6 23.127 154.237V221.72H12.941C5.806 221.72 0 227.526 0 234.661V265.697C0 272.833 5.806 278.639 12.941 278.639H23.127V391.587H11.128C4.992 391.588 0 396.579 0 402.715V424.482C0 430.618 4.992 435.61 11.128 435.61H500.872C507.008 435.61 512 430.618 512 424.482V402.715C512 396.579 507.008 391.588 500.872 391.588H488.873V345.088C488.873 340.946 485.516 337.588 481.373 337.588C477.23 337.588 473.873 340.946 473.873 345.088V391.588H463.479V316.665C463.479 305.028 454.011 295.561 442.375 295.561C430.739 295.561 421.271 305.028 421.271 316.665V391.588H410.877V278.639H473.873V310.087C473.873 314.229 477.23 317.587 481.373 317.587C485.516 317.587 488.873 314.229 488.873 310.087V278.639H499.059C506.195 278.639 512 272.833 512 265.697V234.661C512 227.525 506.194 221.72 499.059 221.72H488.873V154.237C488.873 144.6 481.033 136.76 471.396 136.76H409.758C400.715 61.1351 337.942 3.27912 261.745 0.496119C241.516 -0.242882 220.738 2.86612 200.51 10.6311C196.643 12.1161 194.711 16.4541 196.196 20.3211C197.68 24.1871 202.015 26.1201 205.885 24.6351C235.094 13.4221 261.198 15.4861 261.198 15.4861V15.4861ZM410.837 151.76H471.397C472.762 151.76 473.874 152.871 473.874 154.237V221.72H410.878C410.877 149.726 410.894 154.302 410.837 151.76V151.76ZM343.274 155.269V221.72H325.198V102.152C336.527 116.875 343.274 135.297 343.274 155.269ZM303.032 221.72C301.697 214.894 298.799 208.152 294.346 202.226V76.8841C300 79.6611 305.311 83.0311 310.198 86.9141V221.72H303.032ZM366.854 391.587H150.587V377.566H366.855V391.587H366.854ZM75.729 391.587H63.52V316.664C63.52 313.298 66.258 310.56 69.624 310.56C72.99 310.56 75.728 313.298 75.728 316.664V391.587H75.729ZM116.123 278.639H153.726V362.565H150.342C142.206 362.565 135.587 369.184 135.587 377.32V391.586H116.123V278.639ZM343.274 278.639V362.565H168.726V278.639H343.274ZM201.8 86.9151C206.687 83.0321 211.998 79.6621 217.651 76.8851V202.23C213.248 208.093 210.318 214.817 208.968 221.72H201.8V86.9151ZM274.647 258.171C264.9 264.89 257.539 263.639 251.397 263.639C236.009 261.489 224.189 248.753 223.147 233.277C223.133 233.069 223.114 232.862 223.103 232.653C222.163 213.207 238.234 197.16 257.681 198.142C257.751 198.145 257.819 198.153 257.889 198.157C275.118 199.138 288.939 213.455 288.939 231.038C288.938 242.047 283.451 252.101 274.647 258.171V258.171ZM279.347 189.141C274.332 186.349 268.898 184.524 263.5 183.691V68.3201C268.938 68.7851 274.236 69.7501 279.347 71.1701V189.141ZM248.5 183.691C243.109 184.523 237.672 186.346 232.65 189.142V71.1701C237.761 69.7491 243.06 68.7841 248.5 68.3191V183.691ZM168.726 155.269C168.726 135.299 175.473 116.878 186.8 102.154V221.72H168.726V155.269ZM38.127 154.236C38.127 152.87 39.238 151.759 40.604 151.759H101.164C101.138 152.934 101.124 154.104 101.124 155.268V221.719H38.127V154.236ZM15 236.72H208.398C209.619 246.969 214.158 256.388 220.889 263.639C212.12 263.639 30.815 263.639 14.999 263.639V236.72H15ZM38.127 278.639H101.123V391.587H90.729V316.664C90.729 305.027 81.261 295.56 69.625 295.56C57.989 295.56 48.521 305.027 48.521 316.664V391.587H38.127V278.639ZM15 406.588H79.811V420.61H15V406.588ZM94.811 420.609V406.587H417.19V420.609H94.811ZM497 420.609H432.189V406.587H497V420.609ZM436.271 316.664C436.271 313.298 439.009 310.56 442.375 310.56C445.741 310.56 448.479 313.298 448.479 316.664V391.587H436.27V316.664H436.271ZM395.877 391.587H381.855V377.321C381.855 369.185 375.236 362.566 367.1 362.566H358.275V278.64H395.878V391.587H395.877ZM291.11 263.639C297.842 256.386 302.379 246.985 303.601 236.72H496.999V263.639C487.531 263.639 301.749 263.639 291.11 263.639Z" fill="#134B66"/>
</svg>
